<?xml version="1.0" standalone="no"?>
<!DOCTYPE svg PUBLIC "-//W3C//DTD SVG 20010904//EN"
 "http://www.w3.org/TR/2001/REC-SVG-20010904/DTD/svg10.dtd">
<svg version="1.0" xmlns="http://www.w3.org/2000/svg"
 width="257.000000pt" height="255.000000pt" viewBox="0 0 257.000000 255.000000"
 preserveAspectRatio="xMidYMid meet">

<g transform="translate(0.000000,255.000000) scale(0.100000,-0.100000)"
fill="#000000" stroke="none">
<path d="M90 2480 c0 -20 7 -20 1195 -20 1188 0 1195 0 1195 20 0 20 -7 20
-1195 20 -1188 0 -1195 0 -1195 -20z"/>
<path d="M90 2255 l0 -145 1195 0 1195 0 0 145 0 145 -1195 0 -1195 0 0 -145z"/>
<path d="M1077 1819 c-9 -5 -24 -23 -32 -39 -54 -104 69 -200 156 -122 25 23
32 36 33 71 1 36 -4 47 -32 72 -34 31 -89 39 -125 18z m95 -46 c37 -33 11
-103 -39 -103 -28 0 -63 33 -63 60 0 26 34 60 62 60 12 0 30 -7 40 -17z"/>
<path d="M1430 1755 c0 -32 2 -35 30 -35 28 0 30 3 30 35 0 32 -2 35 -30 35
-28 0 -30 -3 -30 -35z"/>
<path d="M1380 1670 c0 -18 7 -20 80 -20 73 0 80 2 80 20 0 18 -7 20 -80 20
-73 0 -80 -2 -80 -20z"/>
<path d="M1360 1600 c0 -19 7 -20 100 -20 93 0 100 1 100 20 0 19 -7 20 -100
20 -93 0 -100 -1 -100 -20z"/>
<path d="M1010 1580 c0 -14 7 -20 24 -20 21 0 27 -9 44 -67 12 -38 24 -81 28
-96 5 -21 12 -27 27 -25 16 2 25 21 46 93 36 120 51 124 113 26 l44 -71 44 45
c40 41 49 45 92 45 41 0 48 3 48 20 0 18 -7 20 -56 20 -45 0 -62 -5 -86 -25
-16 -14 -33 -25 -36 -25 -4 0 -20 23 -35 50 -28 50 -28 50 -80 50 l-52 0 -19
-66 c-10 -36 -22 -62 -26 -57 -3 4 -14 34 -24 66 -17 57 -17 57 -57 57 -32 0
-39 -3 -39 -20z"/>
<path d="M1240 1408 l0 -88 -115 0 -115 0 0 -25 0 -25 135 0 135 0 0 80 c0 62
-4 87 -20 112 l-20 33 0 -87z"/>
<path d="M425 978 c-32 -17 -45 -39 -45 -78 0 -45 23 -69 88 -91 38 -13 48
-21 50 -42 2 -18 -3 -29 -18 -37 -31 -16 -70 -5 -70 21 0 15 -5 20 -22 17 -18
-2 -24 -11 -26 -36 -3 -27 1 -34 23 -42 38 -14 102 -12 134 5 35 17 55 63 46
104 -8 38 -21 48 -86 69 -56 18 -72 40 -49 67 19 22 57 19 65 -6 10 -31 49
-21 53 13 3 22 -2 30 -23 38 -34 13 -95 12 -120 -2z"/>
<path d="M1590 971 c0 -11 5 -23 10 -26 6 -3 10 -52 10 -110 0 -58 -4 -107
-10 -110 -5 -3 -10 -15 -10 -26 0 -16 7 -19 40 -19 46 0 65 24 37 45 -14 10
-17 30 -16 106 0 105 -1 106 55 -48 34 -96 38 -103 63 -103 25 0 29 7 68 123
l41 122 1 -98 c1 -75 -2 -99 -13 -103 -8 -3 -12 -13 -9 -25 4 -15 14 -19 54
-19 42 0 49 3 49 19 0 11 -4 23 -10 26 -6 3 -10 52 -10 110 0 58 4 107 10 110
6 3 10 15 10 26 0 16 -7 19 -49 19 l-49 0 -36 -107 c-20 -60 -39 -114 -42
-122 -6 -20 -7 -19 -54 112 l-43 117 -48 0 c-42 0 -49 -3 -49 -19z"/>
<path d="M690 893 c-64 -33 -78 -136 -25 -189 27 -27 85 -32 129 -13 39 18 21
39 -31 37 -34 -2 -48 2 -59 17 -22 30 -18 34 49 37 l62 3 3 36 c6 70 -60 107
-128 72z m78 -55 c2 -11 -6 -18 -27 -23 -40 -9 -54 0 -40 26 13 25 62 23 67
-3z"/>
<path d="M873 894 c-3 -8 -1 -20 6 -27 14 -14 15 -133 1 -142 -5 -3 -10 -15
-10 -26 0 -17 7 -19 65 -19 58 0 65 2 65 20 0 13 -9 22 -25 26 -24 6 -26 10
-23 63 3 55 3 56 36 59 28 3 32 7 32 33 0 33 -14 37 -48 13 -20 -14 -22 -14
-22 0 0 22 -68 22 -77 0z"/>
<path d="M1404 894 c-37 -18 -54 -51 -54 -104 0 -76 33 -110 109 -110 41 0 78
21 67 38 -3 6 -27 10 -51 9 -31 -1 -49 3 -55 13 -21 32 -11 40 49 40 51 0 61
3 66 20 11 36 -13 87 -47 99 -40 14 -47 14 -84 -5z m76 -53 c0 -14 -9 -21 -31
-26 -36 -8 -43 -3 -34 24 9 29 65 30 65 2z"/>
<path d="M2070 893 c-64 -33 -78 -136 -25 -189 27 -27 85 -32 129 -13 39 18
21 39 -31 37 -34 -2 -48 2 -59 17 -22 30 -18 34 49 37 l62 3 3 36 c6 70 -60
107 -128 72z m78 -55 c2 -11 -6 -18 -27 -23 -40 -9 -54 0 -40 26 13 25 62 23
67 -3z"/>
<path d="M1060 884 c0 -9 7 -22 15 -28 8 -6 30 -47 48 -91 28 -66 38 -80 58
-83 21 -2 28 7 58 80 19 46 43 90 54 99 28 23 13 39 -39 39 -37 0 -44 -3 -44
-19 0 -11 5 -21 10 -23 7 -2 5 -18 -4 -43 -8 -22 -17 -49 -21 -60 -5 -16 -12
-7 -30 40 -12 33 -18 62 -14 63 5 2 9 12 9 23 0 16 -7 19 -50 19 -40 0 -50 -3
-50 -16z"/>
<path d="M90 305 l0 -145 1195 0 1195 0 0 145 0 145 -1195 0 -1195 0 0 -145z"/>
<path d="M90 80 c0 -20 7 -20 1195 -20 1188 0 1195 0 1195 20 0 20 -7 20
-1195 20 -1188 0 -1195 0 -1195 -20z"/>
</g>
</svg>
